<svg class="animated" id="freepik_stories-cherry-drink" xmlns="http://www.w3.org/2000/svg" viewBox="0 0 500 500" version="1.1" xmlns:xlink="http://www.w3.org/1999/xlink" xmlns:svgjs="http://svgjs.com/svgjs"><style>svg#freepik_stories-cherry-drink:not(.animated) .animable {opacity: 0;}svg#freepik_stories-cherry-drink.animated #freepik--Cherries--inject-42 {animation: 1.5s Infinite  linear floating;animation-delay: 0s;}            @keyframes floating {                0% {                    opacity: 1;                    transform: translateY(0px);                }                50% {                    transform: translateY(-10px);                }                100% {                    opacity: 1;                    transform: translateY(0px);                }            }        </style><g id="freepik--background-complete--inject-42" class="animable" style="transform-origin: 250px 241.955px;"><g id="elr270tw1bav" class="animable" style="transform-origin: 250px 205.136px;"><g id="el8iyp07dxxd7" class="animable" style="transform-origin: 250px 193.358px;"><g id="el3eqne3s63h7" class="animable" style="transform-origin: 249.333px 162.699px;"><path d="M443.92039,300.1975h-180.7461c-3.2324,0-5.86229-2.6298-5.86229-5.8623V31.0618c0-3.2324,2.62989-5.8618,5.86229-5.8618h180.7461c3.2324,0,5.8623,2.6294,5.8623,5.8618V294.3352c0,3.2325-2.6299,5.8623-5.8623,5.8623ZM263.17429,25.45c-3.0947,0-5.61229,2.5176-5.61229,5.6118V294.3352c0,3.0948,2.51759,5.6123,5.61229,5.6123h180.7461c3.0947,0,5.6123-2.5175,5.6123-5.6123V31.0618c0-3.0942-2.5176-5.6118-5.6123-5.6118h-180.7461Z" style="fill: rgb(224, 224, 224); transform-origin: 353.547px 162.699px;" id="elrwymrakhrw" class="animable"></path><path d="M235.49269,300.1975H54.7461c-3.2324,0-5.8618-2.6298-5.8618-5.8623V31.0618c0-3.2324,2.6294-5.8618,5.8618-5.8618H235.49269c3.2324,0,5.86231,2.6294,5.86231,5.8618V294.3352c0,3.2325-2.62991,5.8623-5.86231,5.8623ZM54.7461,25.45c-3.0942,0-5.6118,2.5176-5.6118,5.6118V294.3352c0,3.0948,2.5176,5.6123,5.6118,5.6123H235.49269c3.0947,0,5.61231-2.5175,5.61231-5.6123V31.0618c0-3.0942-2.51761-5.6118-5.61231-5.6118H54.7461Z" style="fill: rgb(224, 224, 224); transform-origin: 145.12px 162.699px;" id="elu0gn5gk5wvj" class="animable"></path></g><rect x="0" y="361.2669" width="500" height=".25" style="fill: rgb(224, 224, 224); transform-origin: 250px 361.392px;" id="elc4bgmszjih" class="animable"></rect></g><rect x="51.6724" y="375.5314" width="16.06" height=".25" style="fill: rgb(224, 224, 224); transform-origin: 59.7024px 375.656px;" id="elnstph8pedf" class="animable"></rect><rect x="170.3524" y="372.8214" width="53.53" height=".25" style="fill: rgb(224, 224, 224); transform-origin: 197.117px 372.946px;" id="elos59jcelcsf" class="animable"></rect><rect x="68.7324" y="384.8214" width="36.25" height=".25" style="fill: rgb(224, 224, 224); transform-origin: 86.8574px 384.946px;" id="elqclsbvpj66p" class="animable"></rect><rect x="378.35239" y="372.6914" width="43.19" height=".25" style="fill: rgb(224, 224, 224); transform-origin: 399.947px 372.816px;" id="elsezhh7u3s8" class="animable"></rect><rect x="430.45239" y="372.6914" width="6.33" height=".25" style="fill: rgb(224, 224, 224); transform-origin: 433.617px 372.816px;" id="el9ve6j67fik" class="animable"></rect><rect x="316.21239" y="378.9214" width="53.89" height=".25" style="fill: rgb(224, 224, 224); transform-origin: 343.157px 379.046px;" id="elap2qfcv9zy" class="animable"></rect></g><path d="M264.02509,458.7108l-9.5086-146.0872,.3217-.0229,10.7986,145.9976c-.5376,.0401-1.0741,.0773-1.6117,.1125Zm-29.5065-.101l-1.4039-.1087,11.6745-145.9289,.528,.0399-10.7986,145.9977Zm60.8377-4.3777l-31.9402-142.8694,.6928-.1554,32.4455,142.7552-1.1981,.2696Zm-91.7348-.2306l-1.3782-.3173,33.2661-142.5665,.5099,.1173-32.3978,142.7665Zm121.51351-8.7447l-52.58251-136.6267,.3832-.1487,53.6232,136.2207c-.4727,.1869-.9474,.3717-1.42389,.5547Zm-151.4531-.4593l-1.3134-.5195,54.2218-135.9844,.49471,.1955-53.4031,136.3084Zm179.8277-12.9985l-72.6328-127.1071,.488-.2802,73.3334,126.705-1.1886,.6823Zm-208.08669-.6128c-.4346-.2506-.8687-.5042-1.3014-.7586l74.2073-126.1941,.376,.2192-73.2819,126.7335Zm233.8471-16.7249l-90.44711-115.1134,.28111-.223,91.40019,114.3585c-.4097,.3279-.8215,.6538-1.23419,.9779Zm-259.5931-.834c-.4551-.3621-.9083-.7262-1.3597-1.0932l92.3973-113.5541,.1511,.121-91.1887,114.5263Zm282.70389-20.3191l-106.69379-100.2413,.33839-.3621,107.3399,99.5493-.9845,1.0541Zm-305.62789-.9284l-.9183-.994,107.75449-99.0994,.3951,.428-107.23129,99.6654Zm325.17119-23.1983l-120.1953-83.5773,.1781-.2583,120.9387,82.4964c-.3049,.448-.6118,.8931-.9215,1.3392Zm-344.64349-1.1542c-.2892-.4222-.5771-.8474-.8625-1.2715l121.4405-81.7549,.2226,.3279-120.80059,82.6985Zm360.61929-26.0272l-131.5391-64.2599,.2993-.6138,131.7906,63.7413-.5508,1.1324Zm-376.30009-1.0275c-.2245-.4642-.4475-.9293-.6686-1.3954l132.2996-62.6795,.1654,.345-131.7964,63.7299Zm387.87639-27.8638l-139.5546-44.2277,.1058-.3421,139.9225,43.0534c-.1563,.5051-.3136,1.0112-.4737,1.5164Zm-399.36459-1.3191c-.1463-.4738-.2907-.9465-.4337-1.4201l140.1861-42.1862,.1321,.4318-139.8845,43.1745Zm406.56529-29.3526l-144.6633-22.4551,.081-.5356,144.7929,21.6106-.2106,1.3801Zm-413.52719-1.1323c-.0748-.4956-.1472-.9912-.2182-1.4868l144.9158-20.7642,.0628,.4289-144.7604,21.8221Zm416.03189-29.6981l-146.3902-1.2991,.0009-.6042h146.396v.2854c0,.54-.0019,1.0799-.0067,1.6179Zm-271.97389-1.4754H40.8117l.0034-1.3487,146.3941,.7596-.0015,.5891Zm124.9223-9.3632l-.04581-.3089,144.728-22.0327c.082,.5356,.1611,1.0713,.2383,1.6079l-144.92049,20.7337Zm-124.2279-.2178l-144.8281-21.3681c.0747-.5066,.1515-1.0126,.2301-1.5177l144.6585,22.4884-.0605,.3974Zm122.274-8.626l-.205-.6681,139.8654-43.2355,.364,1.1847-140.0244,42.7189Zm-120.2363-.3808L49.9991,188.5511l.4299-1.3825,139.659,43.8988-.1482,.4761Zm116.8757-8.3687l-.2517-.5252,131.7545-63.8157,.5852,1.2157-132.088,63.1252Zm-113.496-.2817L61.4449,159.3263l.5919-1.22,131.539,64.2599-.2563,.5269Zm108.8943-7.8116l-.3745-.5509,120.7995-82.6984,.7139,1.0475-121.1389,82.2018Zm-104.1674-.3826l-121.00639-82.3964c.2831-.416,.5676-.8306,.8539-1.2442l120.39649,83.2856-.244,.355Zm98.1115-7.2836l-.18489-.1987,107.12449-99.7809c.3784,.4065,.7548,.8144,1.1294,1.2234l-108.069,98.7562Zm-92.23-.0919L96.488,107.8823c.3407-.368,.6833-.735,1.0269-1.1009l106.70699,100.2269-.294,.3151Zm85.4182-6.2772l-.32309-.2588,91.18869-114.5262c.3974,.316,.7948,.6343,1.1904,.9545l-92.056,113.8305Zm-78.4954-.1582L119.319,86.6353c.4098-.3284,.8206-.6548,1.2333-.9798l90.5805,115.0085-.2821,.224Zm70.8248-5.1429l-.4222-.2454,73.1199-126.8279,1.2552,.7291-73.9529,126.3442Zm-63.0832-.1558l-73.4954-126.6106c.4337-.2517,.8683-.5014,1.3035-.7501l72.5626,127.1472-.37071,.2135Zm54.6102-3.9874l-.3832-.1519,53.32971-136.3366c.47659,.1864,.95129,.3741,1.424,.5633l-54.37051,135.9252Zm-46.1771-.091L173.2144,55.3636c.4807-.1901,.9621-.3778,1.4443-.5637l52.7264,136.5704-.3597,.1406Zm37.32761-2.6839l-.38511-.0881,32.1462-142.8229c.5023,.113,1.0035,.2279,1.50391,.3445l-33.265,142.5665Zm-28.49761-.0481L203.205,46.0705c.50839-.1163,1.018-.2312,1.52869-.3436l31.4837,142.9705-.362,.0815Zm19.2044-1.3858l-.41179-.0309,10.58379-146.0129c.507,.0366,1.014,.0753,1.5191,.1158l-11.6911,145.928Zm-9.9246-.0153l-11.0293-145.98c.50511-.038,1.0117-.0743,1.5188-.1086l9.9246,146.0591-.4141,.0295Z" style="fill: rgb(245, 245, 245); transform-origin: 250px 250px;" id="eldi5tx3xz45u" class="animable"></path><g id="elnratx64xl37" class="animable" style="transform-origin: 383.127px 321.507px;"><path d="M378.31949,351.4221c-4.6257-5.0224-9.0251-9.925-13.0992-14.655-.7051-.8186-1.4004-1.632-2.0854-2.4398-3.7758-4.4532-7.24-8.7411-10.3064-12.8182-1.8949-2.2235-1.6284-5.5622,.5951-7.4571,6.64941-4.7521,15.831-12.2469,27.0545-23.055,2.2236-1.8949,5.5623-1.6285,7.4572,.5951,6.8812,4.8398,16.1105,17.1364,25.491,29.9131,1.8948,2.2235,1.6284,5.5622-.5952,7.4571-13.0847,10.6915-21.2625,17.7552-27.0544,23.055-2.22369,1.8949-5.5623,1.6285-7.4572-.5952Z" style="fill: rgb(240, 240, 240); transform-origin: 383.127px 321.507px;" id="el8au97pko0cf" class="animable"></path><path d="M379.88019,342.1021c-.2108-.8608-.8539-1.5396-1.4801-2.1668-4.3167-4.3229-9.3152-8.7935-10.11909-14.8496-.38261-2.8823-4.16771-5.8565-3.17371-8.589,2.5058-6.8888,11.7214-12.8843,17.8529-16.9017,.7376-.4833,1.5147-.9574,2.0231-1.678,.5083-.7205,.6712-1.7714,.1242-2.4631s-3.1206-1.2707-3.3657-.4236c-7.2427,5.6678-14.0704,11.8656-20.4104,18.5278-1.8727,1.9677-3.8246,4.2964-3.6701,7.0084,.11971,2.1033,1.4951,3.8986,2.8381,5.5218,5.0159,6.0619,10.4188,11.8035,16.165,17.1781,.6012,.5624,1.3534,1.1634,2.1549,.9759,.863-.2018,1.27171-1.2794,1.0609-2.1402Z" style="fill: rgb(245, 245, 245); transform-origin: 371.551px 319.443px;" id="elzhyvqaumfxg" class="animable"></path><path d="M408.82109,323.146c-.343-1.466-1.46509-2.6034-2.5393-3.6584-1.49979-1.4729-2.9996-2.9458-4.4994-4.4188-.3421-.336-.75139-.6974-1.2287-.6512-.4774,.0463-.7805,.8043-.3439,1.0026l-.2097,.4572c.86391,1.4953,2.2823,2.5756,3.4012,3.8909,1.1189,1.3154,1.9631,3.129,1.3529,4.7445-.5148,1.3627-1.8874,2.1615-3.0985,2.9708-1.9974,1.3347-3.788,2.9772-5.2959,4.8471-.8435,1.0459,.2728,2.5542,1.5268,2.0717,2.2459-.864,4.3198-2.3367,6.28841-3.771,1.262-.9195,2.54319-1.8576,3.48619-3.1021,.943-1.2446,1.5156-2.8629,1.1599-4.3833Z" style="fill: rgb(245, 245, 245); transform-origin: 402.497px 324.454px;" id="elik083i0bogj" class="animable"></path></g><g id="elfw6idu41ztt" class="animable" style="transform-origin: 383.127px 410.344px;"><path d="M382.25559,385.3981c.2868,.5361,3.698-6.1115,15.6591-5.3875,11.9612,.7239,21.5592,12.6045,19.545,29.781-2.1916,18.6892-13.6614,30.1343-34.9096,30.9106s-27.86609-13.8036-29.7246-17.1968c-4.9396-9.0187-7.8037-30.0983,3.88651-38.2983,12.86219-9.0223,23.35449-3.8996,25.54359,.191Z" style="fill: rgb(235, 235, 235); transform-origin: 383.127px 410.344px;" id="elfmlwwk6hlc" class="animable"></path><path d="M373.80119,385.8898c2.079,2.2516,4.9134,3.9243,7.9762,3.82,2.0634-.0703,4.0437-.8037,5.939-1.6227,1.8085-.7814,3.5797-1.6492,5.30561-2.5994,0,0-7.27411,.4645-9.85361,1.139-2.5796,.6746-5.0919-2.2498-7.1296-2.3784-2.03779-.1285-3.5004,.2739-2.2376,1.6415Z" style="fill: rgb(224, 224, 224); transform-origin: 383.177px 386.97px;" id="el9ukl5n1usxu" class="animable"></path><g id="el05qa7gfpy0zi"><g style="opacity: 0.3; transform-origin: 401.149px 400.753px;" class="animable"><path d="M402.01529,386.0446c5.3811,.9567,8.7883,4.0513,10.8698,9.105s2.4311,13.0358-1.2678,20.3109c-.2254-5.6169-3.6732-15.084-7.9939-18.68-4.3208-3.596-10.1933-5.258-15.7577-4.4598,8.4165-3.097,9.8971-4.8445,14.1496-6.2761Z" style="fill: rgb(255, 255, 255); transform-origin: 401.149px 400.753px;" id="elq4pt9si94ik" class="animable"></path></g></g><path d="M356.712,385.2071c1.97709-1.3869,3.89789-2.4384,5.74139-3.2119-.29039,.2274-.5941,.4382-.8827,.6331-6.8693,4.6408-10.8273,13.0285-10.7456,21.3181,.0817,8.2897,3.9688,16.3323,9.9247,22.0987,9.3097,9.0135,26.4721,13.2897,38.7885,9.2625,7.1142-2.3262,12.6768-8.8334,15.0189-14.0348-4.9555,11.818-15.544,18.828-32.0071,19.4294-21.2482,.7763-27.86609-13.8036-29.7246-17.1968-4.93949-9.0187-7.8037-30.0983,3.88651-38.2983Z" style="fill: rgb(224, 224, 224); transform-origin: 381.542px 411.364px;" id="elqb45mmnwwp" class="animable"></path><g id="ela31iiu0em0o"><g style="opacity: 0.3; transform-origin: 366.064px 389.071px;" class="animable"><path d="M359.74479,388.6555c1.6833-3.2931,5.864-5.0731,9.4045-4.0039l.3118,.6472c1.0135,1.6251,2.0271,3.2502,3.0407,4.8753,.2333,.374,.4754,.7815,.4439,1.2212-.0574,.8006-.9421,1.2407-1.7096,1.4756-2.8145,.8616-5.809,1.1304-8.7319,.7836-1.0134-.1202-2.1033-.361-2.7585-1.1434-.8751-1.045-.6213-2.6419-.0009-3.8556Z" style="fill: rgb(255, 255, 255); transform-origin: 366.064px 389.071px;" id="elp72ykiq7j3h" class="animable"></path></g></g></g><g id="elivnpysk887d" class="animable" style="transform-origin: 137.665px 137.222px;"><path d="M132.0113,120.157c.3436,.3227,1.2013-5.4056,10.1663-7.8388,8.9651-2.4333,18.96,3.914,21.7383,17.0296,3.023,14.2707-2.5646,25.5205-17.9792,31.3578s-23.8897-3.2314-26.0959-5.263c-5.8638-5.3999-13.1928-20.1731-6.639-29.094,7.211-9.8153,16.1876-8.6535,18.8095-6.1916Z" style="fill: rgb(235, 235, 235); transform-origin: 137.665px 137.222px;" id="elcb69oe0qhmr" class="animable"></path><path d="M125.9233,122.6139c2.0852,1.1385,4.5817,1.6645,6.8055,.8286,1.4983-.5631,2.771-1.5926,3.9601-2.664,1.1347-1.0223,2.2205-2.0988,3.2527-3.2245,0,0-5.2278,2.1443-6.9553,3.2792s-4.2977-.3904-5.8264,.0204c-1.5286,.4107-2.5031,1.0688-1.2366,1.7603Z" style="fill: rgb(224, 224, 224); transform-origin: 132.641px 120.703px;" id="eltum0lekznui" class="animable"></path><g id="el9f78yya8oaf"><g style="opacity: 0.3; transform-origin: 149.543px 125.274px;" class="animable"><path d="M146.6852,115.7337c4.1898-.6311,7.4595,.7973,10.2411,3.9933s5.017,8.9723,4.1035,15.2329c-1.5579-4.0698-6.4371-10.1688-10.5021-11.7391-4.065-1.5702-8.7904-1.3354-12.6797,.6303,5.4143-4.3611,6.0687-6.0117,8.8372-8.1174Z" style="fill: rgb(255, 255, 255); transform-origin: 149.543px 125.274px;" id="ellocvhbtwlfm" class="animable"></path></g></g><path d="M113.2018,126.3486c1.1085-1.5088,2.2587-2.7572,3.4211-3.7824-.157,.239-.3278,.4691-.4915,.6839-3.8952,5.1115-4.7232,12.2535-2.6083,18.322,2.1149,6.0686,6.9636,11.0125,12.7677,13.7716,9.0724,4.3128,22.7384,3.1994,30.7867-2.8117,4.6488-3.4721,7.1215-9.6306,7.5525-14.0316-.7104,9.9088-6.7501,17.6824-18.6933,22.2052-15.4147,5.8372-23.8897-3.2314-26.0959-5.263-5.8638-5.3999-13.1928-20.1731-6.639-29.094Z" style="fill: rgb(224, 224, 224); transform-origin: 137.627px 142.601px;" id="el7qpfz9nbox3" class="animable"></path><g id="elbi2yh1a92af"><g style="opacity: 0.3; transform-origin: 121.462px 127.057px;" class="animable"><path d="M116.2843,128.1297c.4201-2.8361,3.0497-5.1798,5.9152-5.2722l.3894,.3982c1.1474,.9424,2.2947,1.8848,3.442,2.8272,.2641,.2169,.5429,.4562,.6288,.7869,.1563,.6023-.3845,1.1448-.8899,1.5076-1.8537,1.3306-3.9866,2.2703-6.2195,2.7401-.7741,.1629-1.6344,.2563-2.3095-.156-.9019-.5507-1.1113-1.7865-.9565-2.8318Z" style="fill: rgb(255, 255, 255); transform-origin: 121.462px 127.057px;" id="el6qgi7oxjxno" class="animable"></path></g></g></g><g id="elmp8b5kn5ibn" class="animable" style="transform-origin: 241.355px 103.927px;"><path d="M239.872,146.2268c-7.28191-6.1609-14.22951-12.1947-20.69621-18.0456-1.1191-1.0126-2.2239-2.0197-3.3133-3.0209-6.0052-5.5189-11.5499-10.8626-16.5068-15.983-3.01169-2.754-3.2206-7.4281-.4666-10.4399,8.3941-7.739,19.8232-19.7184,33.50891-36.6445,2.754-3.0118,7.42819-3.2208,10.44-.4666,10.37689,5.5168,25.30019,20.9634,40.51629,37.0494,3.01171,2.754,3.22071,7.4281,.4665,10.44-16.2857,17.0866-26.3981,28.2947-33.5087,36.6444-2.7542,3.0118-7.4283,3.2208-10.44009,.4667Z" style="fill: rgb(235, 235, 235); transform-origin: 241.355px 103.927px;" id="el7s73imfrszt" class="animable"></path><path d="M240.42109,133.0373c-.4413-1.1568-1.4503-1.9864-2.427-2.7474-6.7325-5.2445-14.4356-10.5757-16.5989-18.8313-1.0297-3.9292-6.7916-7.3963-5.8871-11.3562,2.2803-9.9831,14.0163-19.8902,21.8197-26.521,.9388-.7977,1.9339-1.5896,2.5137-2.6765,.5799-1.0868,.6237-2.5717-.2544-3.4358-.87809-.864-4.5459-1.2208-4.7388-.0041-9.058,9.111-17.4488,18.8849-25.08329,29.218-2.25491,3.052-4.55731,6.618-3.87351,10.3506,.5304,2.8948,2.7479,5.1452,4.8907,7.1626,8.00281,7.5341,16.4866,14.5571,25.3829,21.012,.9308,.6754,2.0776,1.3781,3.1562,.9794,1.1612-.4292,1.5411-1.9937,1.0998-3.1503Z" style="fill: rgb(245, 245, 245); transform-origin: 223.184px 101.492px;" id="elkubudmw001c" class="animable"></path><path d="M277.25489,101.7478c-.7294-1.9728-2.4818-3.355-4.1537-4.6314-2.3341-1.7819-4.6681-3.5638-7.00219-5.3459-.53251-.4065-1.16241-.8365-1.816-.6897-.65371,.1468-.94261,1.25-.303,1.4493l-.21161,.6701c1.4565,1.9231,3.6099,3.1748,5.38861,4.8043,1.77879,1.6296,3.26319,3.9974,2.69719,6.3424-.4776,1.9781-2.2419,3.3231-3.7805,4.6547-2.5376,2.1962-4.7351,4.783-6.5015,7.6362-.988,1.596,.8206,3.4934,2.4753,2.6074,2.9636-1.5867,5.5832-3.9873,8.0636-6.3166,1.5902-1.4931,3.2036-3.0154,4.2951-4.9039,1.0916-1.8884,1.6051-4.231,.8487-6.2769Z" style="fill: rgb(245, 245, 245); transform-origin: 269.453px 105.261px;" id="eld8e8rbqjngr" class="animable"></path></g><g id="el8ymvli4s0su" class="animable" style="transform-origin: 104.982px 248.783px;"><path d="M138.7859,265.7628c-7.7196,3.6168-15.2114,7.0094-22.3753,10.0796-1.2398,.5314-2.4697,1.053-3.6892,1.5645-6.7221,2.8193-13.1302,5.3298-19.1376,7.4461-3.3601,1.4191-7.2344-.1544-8.6534-3.5144-3.1552-9.704-8.6226-23.4545-17.2661-40.8826-1.4191-3.3601,.1544-7.2344,3.5146-8.6535,8.3508-6.3707,26.4622-12.7308,45.2021-19.0903,3.3601-1.4191,7.2344,.1544,8.6535,3.5146,7.8042,19.5998,13.1362,31.9932,17.266,40.8825,1.4191,3.3601-.1544,7.2344-3.5146,8.6535Z" style="fill: rgb(235, 235, 235); transform-origin: 104.982px 248.783px;" id="el6wf8sgoumcw" class="animable"></path><path d="M128.2781,260.3979c-1.1041-.073-2.1542,.4371-3.1365,.9466-6.7705,3.5122-13.9734,7.7805-21.4855,6.4587-3.5753-.629-8.5402,2.7578-11.4191,.5463-7.2579-5.5752-10.9277-18.8021-13.4031-27.613-.2977-1.06-.5698-2.1635-1.2363-3.0398s-1.8562-1.4657-2.8855-1.0747c-1.0292,.3909-2.6869,3.2369-1.7707,3.8474,4.0219,10.7548,8.8311,21.215,14.3765,31.2695,1.6378,2.9697,3.6755,6.1696,6.9622,7.0062,2.5489,.6489,5.2038-.3129,7.6415-1.3009,9.1038-3.6902,17.9719-7.9617,26.5325-12.78,.8957-.5041,1.8941-1.1734,1.9726-2.1981,.0844-1.1033-1.0446-1.9953-2.1486-2.0682Z" style="fill: rgb(245, 245, 245); transform-origin: 101.553px 257.728px;" id="elz6kgdb5mz6" class="animable"></path><path d="M116.6015,218.8119c-1.8743-.1433-3.6505,.7645-5.3107,1.6464-2.3178,1.2312-4.6356,2.4624-6.9535,3.6936-.5287,.2808-1.1128,.6321-1.2374,1.2177-.1246,.5857,.6637,1.2317,1.0641,.7866l.4654,.4218c2.1051-.4658,3.9249-1.748,5.9117-2.585,1.987-.837,4.4637-1.1596,6.1572,.1747,1.4286,1.1256,1.863,3.0602,2.3707,4.8066,.8374,2.88,2.1189,5.6296,3.7775,8.1284,.9278,1.3977,3.1435,.6363,3.0409-1.0381-.1835-2.9988-1.1563-6.0218-2.1231-8.9051-.6197-1.8483-1.2544-3.7265-2.3811-5.3174-1.1268-1.5909-2.8379-2.8816-4.7817-3.0302Z" style="fill: rgb(245, 245, 245); transform-origin: 114.489px 228.314px;" id="elfl0i6gz16o" class="animable"></path></g></g><g id="freepik--Shadow--inject-42" class="animable" style="transform-origin: 250px 448.531px;"><path d="M458.875,448.5311c0,3.3867-93.51651,6.1322-208.875,6.1322s-208.875-2.7455-208.875-6.1322,93.5165-6.1323,208.875-6.1323,208.875,2.7455,208.875,6.1323Z" style="fill: rgb(245, 245, 245); transform-origin: 250px 448.531px;" id="els51ko0w2uqg" class="animable"></path></g><g id="freepik--Cherry_Drink--inject-42" class="animable" style="transform-origin: 260.591px 266.293px;"><g id="elbzx2jdamhz" class="animable" style="transform-origin: 260.591px 266.293px;"><g id="eldgyzukwuxs" class="animable" style="transform-origin: 260.591px 311.711px;"><path d="M338.95259,186.5134l-78.3619-.0119-.00069,.1062-78.3612-.0943s-30.189,162.1611-24.964,184.4581c5.225,22.2972,29.0279,56.2497,46.4447,67.905h113.76251c17.41669-11.6553,41.21959-45.6078,46.44459-67.905,5.2251-22.297-24.964-184.4581-24.964-184.4581Z" style="fill: rgb(64, 123, 255); transform-origin: 260.591px 312.689px;" id="el70z3tsb6rba" class="animable"></path><g id="elz7zjd9szkcr"><path d="M338.95259,186.5134l-78.3619-.0119-.00069,.1062-78.3612-.0943s-30.189,162.1611-24.964,184.4581c5.225,22.2972,29.0279,56.2497,46.4447,67.905h113.76251c17.41669-11.6553,41.21959-45.6078,46.44459-67.905,5.2251-22.297-24.964-184.4581-24.964-184.4581Z" style="fill: rgb(255, 255, 255); opacity: 0.8; transform-origin: 260.591px 312.689px;" class="animable"></path></g><g id="el11ughb2z9nrp"><path d="M343.83329,271.9388c-5.0134-31.5107-11.1565-71.5099-13.6819-85.4108H194.3999c-2.5261,13.906-12.0392,53.9081-17.0515,85.4108-12.5106,78.6324-11.3161,93.9886-10.6521,96.823,4.3384,18.5136,24.3511,48.3747,40.121,60.428,37.3034,5.7003,73.3153,6.3393,107.54671,0,15.77029-12.0533,35.783-41.9151,40.121-60.428,.664-2.8344,1.85849-18.1913-10.65171-96.823Z" style="fill: rgb(64, 123, 255); opacity: 0.4; transform-origin: 260.591px 310.118px;" class="animable"></path></g><path d="M338.95259,186.5015c0,3.221-35.0838,5.8322-78.3619,5.8322s-78.3619-2.6112-78.3619-5.8322,35.0838-5.8321,78.3619-5.8321,78.3619,2.6111,78.3619,5.8321Z" style="fill: rgb(64, 123, 255); transform-origin: 260.591px 186.502px;" id="elv05g4wl0ghn" class="animable"></path><g id="el513n454ubqi"><path d="M338.95259,186.5015c0,3.221-35.0838,5.8322-78.3619,5.8322s-78.3619-2.6112-78.3619-5.8322,35.0838-5.8321,78.3619-5.8321,78.3619,2.6111,78.3619,5.8321Z" style="fill: rgb(255, 255, 255); opacity: 0.8; transform-origin: 260.591px 186.502px;" class="animable"></path></g><g id="elzf3dueji4zg" class="animable" style="transform-origin: 260.368px 438.229px;"><ellipse cx="260.36762" cy="438.2288" rx="57.54952" ry="4.5241" style="fill: rgb(64, 123, 255); transform-origin: 260.368px 438.229px;" id="els0l0wepgep" class="animable"></ellipse><g id="ely7elcbykowr"><ellipse cx="260.36762" cy="438.2288" rx="57.54952" ry="4.5241" style="fill: rgb(255, 255, 255); opacity: 0.8; transform-origin: 260.368px 438.229px;" class="animable"></ellipse></g></g><g id="elavealzv8dcq"><path d="M338.95261,186.5015c-.03885,.43788-.48169,.66371-.81882,.86066-2.63903,1.18802-5.5762,1.51961-8.40437,2.00906-9.79609,1.44106-19.69425,2.01759-29.57268,2.54836-36.20019,1.34369-72.68704,1.81324-108.70488-2.54707-2.83008-.49018-5.76401-.82201-8.40433-2.01016-.33711-.19707-.77992-.42294-.81874-.86084,.04958,.43465,.49298,.64572,.83275,.83354,2.65879,1.11823,5.59294,1.37625,8.42402,1.79459,36.06888,3.49396,72.45053,3.03545,108.63781,2.0254,9.87281-.39329,19.75696-.86603,29.57256-2.02467,2.83295-.41852,5.76399-.6768,8.42397-1.79514,.33975-.18794,.78314-.39908,.8327-.83372h0Z" style="fill: rgb(255, 255, 255); opacity: 0.8; transform-origin: 260.591px 189.68px;" class="animable"></path></g></g><g id="elr9mqktoceec" class="animable" style="transform-origin: 260.591px 352.823px;"><path d="M177.3484,271.9388c-12.5106,78.6324-11.3161,93.9886-10.6521,96.823,4.3384,18.5136,24.3511,48.3747,40.121,60.428,37.3034,5.7003,73.3153,6.3393,107.54671,0,15.77029-12.0533,35.783-41.9151,40.121-60.428,.664-2.8344,1.85849-18.1913-10.65171-96.823" style="fill: rgb(64, 123, 255); transform-origin: 260.591px 352.823px;" id="elbpqdflscf2o" class="animable"></path><g id="el6l6wuvd8eux" class="animable" style="transform-origin: 232.838px 392.677px;"><g id="el5qe85rtjuuv"><path d="M262.10909,415.8703c-8.1876,1.9481-16.11,3.7253-23.6507,5.2566-1.305,.265-2.5986,.5226-3.88,.7725-7.06339,1.3772-13.7613,2.519-19.9929,3.3601-3.5326,.698-6.9622-1.6-7.6602-5.1326-1.104-10.0133-3.6316-24.4018-8.4921-42.9822-.6979-3.5327,1.6001-6.9623,5.13281-7.6603,9.35-4.4837,28.13309-6.9998,47.52359-9.3892,3.5326-.698,6.9622,1.6,7.6602,5.1327,3.6136,20.5115,6.2825,33.561,8.4921,42.9821,.6979,3.5327-1.6001,6.9623-5.1328,7.6603Z" style="fill: rgb(255, 255, 255); opacity: 0.2; transform-origin: 232.838px 392.677px;" class="animable"></path></g><g id="elwpx8zo5ssl"><g style="opacity: 0.1; transform-origin: 229.061px 397.532px;" class="animable"><path d="M253.02739,408.577c-1.0526-.292-2.1701-.0095-3.2217,.286-7.2492,2.0375-15.0679,4.7191-22.0645,1.9349-3.33-1.3251-8.8086,.9532-11.1481-1.7619-5.8979-6.8448-6.7929-20.3666-7.4188-29.3802-.07529-1.0844-.117-2.2057-.5856-3.1865-.4685-.9807-1.5004-1.789-2.5738-1.6175-1.0733,.1715-3.2464,2.5901-2.4832,3.364,1.7312,11.2029,4.2824,22.2788,7.6266,33.1102,.9878,3.1991,2.3158,6.701,5.3251,8.1689,2.3339,1.1383,5.0932,.741,7.6477,.2747,9.5404-1.7415,18.9695-4.0922,28.21091-7.0331,.96689-.3078,2.06629-.7545,2.34769-1.7294,.3028-1.0495-.6096-2.1382-1.6623-2.4301Z" style="fill: rgb(255, 255, 255); transform-origin: 229.061px 397.532px;" id="elgudkwhf5o0t" class="animable"></path></g></g><g id="elbynm9dgmu9n"><g style="opacity: 0.1; transform-origin: 245.728px 375.901px;" class="animable"><path d="M236.94909,371.1421c2.1283-.0281,4.1446-.9026,6.2331-1.3133,2.0886-.4106,4.5474-.2258,5.9169,1.4037,1.1552,1.3744,1.1872,3.3317,1.3278,5.1217,.2319,2.9519,.9193,5.8669,2.0215,8.6149,.61661,1.5372,2.911,1.2455,3.1477-.3936,.424-2.9357,.08991-6.0529-.2665-9.034-.2284-1.9111-.4653-3.8538-1.2354-5.6177-.77019-1.7638-2.1654-3.3546-4.0147-3.8881-1.7831-.5144-3.6821,.007-5.4638,.5266-2.4874,.7253-4.9748,1.4507-7.4623,2.176-.5675,.1655-1.2026,.3879-1.4405,.929-.2378,.5412,.3947,1.3238,.871,.9738" style="fill: rgb(255, 255, 255); transform-origin: 245.728px 375.901px;" id="elxqcasq1pdzr" class="animable"></path></g></g></g><g id="elcvjsykqt026" class="animable" style="transform-origin: 217.729px 325.463px;"><path d="M229.73339,306.1816c-.5355,.3111,.0648-7.2758-10.6897-13.0483-10.7545-5.7726-25.4303-.6109-32.8751,15.3542-8.1005,17.3713-4.2832,33.4283,13.7179,45.4703,18.0012,12.0421,31.5384,2.9462,34.9648,.9997,9.1069-5.1738,22.8683-21.9116,17.12371-35.2739-6.32051-14.7021-18.15561-15.8762-22.24161-13.502Z" style="fill: rgb(64, 123, 255); transform-origin: 217.729px 325.463px;" id="elxu4q8bb0g3" class="animable"></path><g id="elemjl7t4h6vs"><path d="M229.73339,306.1816c-.5355,.3111,.0648-7.2758-10.6897-13.0483-10.7545-5.7726-25.4303-.6109-32.8751,15.3542-8.1005,17.3713-4.2832,33.4283,13.7179,45.4703,18.0012,12.0421,31.5384,2.9462,34.9648,.9997,9.1069-5.1738,22.8683-21.9116,17.12371-35.2739-6.32051-14.7021-18.15561-15.8762-22.24161-13.502Z" style="fill: rgb(255, 255, 255); opacity: 0.2; transform-origin: 217.729px 325.463px;" class="animable"></path></g><g id="el79qw4xa2etl"><g style="opacity: 0.2; transform-origin: 229.051px 306.077px;" class="animable"><path d="M236.79789,311.1314c-3.0066,.8391-6.3583,.7723-8.9571-.9569-1.7509-1.165-3.07479-2.8603-4.2793-4.5842-1.1494-1.645-2.2202-3.3449-3.2077-5.0919,0,0,6.0561,4.2947,7.931,6.2596s5.6171,.7745,7.4521,1.7534c1.8349,.979,2.8873,2.1103,1.061,2.62Z" id="el3s6qbhyo8iq" class="animable" style="transform-origin: 229.051px 306.077px;"></path></g></g><g id="el9l5n7lh81gb"><g style="opacity: 0.2; transform-origin: 204.683px 305.795px;" class="animable"><path d="M212.26109,296.169c-5.176-2.05-9.7849-1.1909-14.29309,2.0755-4.5082,3.2665-9.0821,9.9978-9.7688,18.2825,3.2007-4.7477,11.2546-11.1083,16.9236-11.9132,5.669-.8048,11.64821,.8968,16.044,4.566-5.63779-7.1877-5.986-9.4945-8.9057-13.0108Z" style="fill: rgb(255, 255, 255); transform-origin: 204.683px 305.795px;" id="elwuv9kq7a7t" class="animable"></path></g></g><g id="elatak7tmju19"><g style="opacity: 0.2; transform-origin: 217.732px 336.954px;" class="animable"><path d="M251.97509,319.6836c-.9716-2.26-2.0738-4.1991-3.2578-5.8559,.13,.3524,.2805,.6976,.4263,1.021,3.4707,7.6979,2.4133,17.0856-2.0931,24.2268-4.5063,7.1412-12.1788,12.0321-20.4264,13.8432-12.8918,2.831-27.71309,.5916-39.4002-13.1871-4.9317-5.8142-4.9756-17.336-4.6829-19.7399-2.0283,12.8946,3.3983,24.6359,17.34559,33.9661,18.0011,12.0421,31.5383,2.9462,34.9647,.9997,9.1069-5.1738,22.8683-21.9116,17.1238-35.2739Z" id="elywsgyjl79fe" class="animable" style="transform-origin: 217.732px 336.954px;"></path></g></g><g id="eltc52vb6qhv9"><g style="opacity: 0.2; transform-origin: 240.995px 318.531px;" class="animable"><path d="M247.50119,321.0496c.3031-3.7549-2.3681-7.5346-6.0088-8.5023l-.6165,.3941c-1.748,.8662-3.4961,1.7324-5.2441,2.5986-.4023,.1994-.8302,.423-1.0382,.821-.37859,.7245,.1527,1.5793,.6922,2.1936,1.9784,2.2528,4.43,4.088,7.149,5.3514,.9426,.438,2.0161,.8125,3.0026,.485,1.3177-.4376,1.9521-1.9575,2.0638-3.3414Z" style="fill: rgb(255, 255, 255); transform-origin: 240.995px 318.531px;" id="elv7wi17fed2n" class="animable"></path></g></g></g><g id="elvla2s3hqey" class="animable" style="transform-origin: 256.132px 299.78px;"><g id="elh7mkzaruk9h"><path d="M257.15529,297.7805c0,1.501-1.2168,2.7179-2.7179,2.7179s-2.7179-1.2169-2.7179-2.7179c0-1.5011,1.2168-2.718,2.7179-2.718s2.7179,1.2169,2.7179,2.718Z" style="opacity: 0.1; transform-origin: 254.437px 297.78px;" class="animable"></path></g><g id="elt1y0cphgp7q"><path d="M260.54479,302.9041c0,.8802-.7135,1.5937-1.59379,1.5937-.88021,0-1.59371-.7135-1.59371-1.5937s.7135-1.5938,1.59371-1.5938c.88029,0,1.59379,.7136,1.59379,1.5938Z" style="opacity: 0.1; transform-origin: 258.951px 302.904px;" class="animable"></path></g></g><g id="el6rsvvk46svr" class="animable" style="transform-origin: 281.444px 419.441px;"><g id="elui20w1cxj"><path d="M281.66909,421.0337c-.83609-1.6542-.1729-3.673,1.4813-4.5091,1.6541-.8361,3.6729-.1729,4.509,1.4813,.8361,1.6541,.1729,3.6729-1.4812,4.509-1.65419,.8361-3.673,.1729-4.5091-1.4812Z" style="opacity: 0.1; transform-origin: 284.664px 419.52px;" class="animable"></path></g><g id="elelzvkqh8zcf"><path d="M275.08,417.2754c-.49021-.97-.10141-2.1537,.86859-2.644s2.1538-.1014,2.6441,.8686c.49031,.9699,.1014,2.1537-.8686,2.644s-2.1538,.1014-2.64409-.8686Z" style="opacity: 0.1; transform-origin: 276.836px 416.388px;" class="animable"></path></g><g id="elcilm8guk43s"><path d="M276.43239,423.7545c-.3213-.6356-.0665-1.4113,.5692-1.7326,.6356-.3213,1.4113-.0665,1.7326,.5692,.3213,.6356,.0664,1.4113-.56919,1.7326-.63561,.3213-1.41131,.0664-1.73261-.5692Z" style="opacity: 0.1; transform-origin: 277.583px 423.173px;" class="animable"></path></g></g><g id="el61996pqaxlc" class="animable" style="transform-origin: 340.636px 351.906px;"><g id="ellnnd0mzb83s"><path d="M340.86109,358.8278c-.83609-1.6542-.173-3.673,1.4812-4.5091s3.673-.1729,4.5091,1.4813c.8361,1.6541,.1729,3.6729-1.4813,4.509s-3.6729,.1729-4.509-1.4812Z" style="opacity: 0.1; transform-origin: 343.856px 357.314px;" class="animable"></path></g><g id="el22w17te5fyp"><path d="M334.272,355.0695c-.49031-.97-.10141-2.1537,.86859-2.644s2.1537-.1014,2.644,.8686c.4903,.9699,.10141,2.1537-.86859,2.644-.96991,.4903-2.15371,.1014-2.644-.8686Z" style="opacity: 0.1; transform-origin: 336.028px 354.182px;" class="animable"></path></g><g id="el1iktavayz8h"><path d="M343.99519,345.0139c-.3213-.6356-.0665-1.4113,.5691-1.7326,.63571-.3213,1.4114-.0664,1.73271,.5692,.32119,.6356,.06639,1.4113-.56921,1.7326s-1.4114,.0665-1.7326-.5692Z" style="opacity: 0.1; transform-origin: 345.146px 344.432px;" class="animable"></path></g></g><g id="elc3w0tdtie8" class="animable" style="transform-origin: 327.399px 296.56px;"><g id="el10omw716oscb"><path d="M327.62379,298.946c-.8361-1.6542-.1729-3.673,1.4813-4.5091s3.67291-.1729,4.509,1.4813c.8361,1.6542,.173,3.6729-1.4812,4.509s-3.673,.173-4.5091-1.4812Z" style="opacity: 0.1; transform-origin: 330.619px 297.432px;" class="animable"></path></g><g id="el37zx7omhkpl"><path d="M321.03479,295.1877c-.4903-.9699-.1014-2.1537,.8686-2.644,.9699-.4903,2.1537-.1014,2.644,.8686s.1014,2.1537-.8686,2.644-2.15379,.1014-2.644-.8686Z" style="opacity: 0.1; transform-origin: 322.791px 294.3px;" class="animable"></path></g></g><g id="elb6btromeopd" class="animable" style="transform-origin: 303.357px 378.209px;"><path d="M290.40469,359.8321c.1082,.6097-6.8108-2.56-15.9261,5.5574-9.1154,8.1174-9.30859,23.6733,3.128,36.1489,13.532,13.5743,29.9233,15.5045,47.4158,2.7349,17.4924-12.7697,13.5998-28.6076,12.94861-32.4941-1.731-10.33-12.72371-29.0033-27.24621-28.1979-15.9786,.8861-21.1463,11.5978-20.3201,16.2508Z" style="fill: rgb(64, 123, 255); transform-origin: 303.357px 378.209px;" id="elnk5xs9rpfel" class="animable"></path><g id="elefijwgi9xds"><path d="M290.40469,359.8321c.1082,.6097-6.8108-2.56-15.9261,5.5574-9.1154,8.1174-9.30859,23.6733,3.128,36.1489,13.532,13.5743,29.9233,15.5045,47.4158,2.7349,17.4924-12.7697,13.5998-28.6076,12.94861-32.4941-1.731-10.33-12.72371-29.0033-27.24621-28.1979-15.9786,.8861-21.1463,11.5978-20.3201,16.2508Z" style="opacity: 0.1; transform-origin: 303.357px 378.209px;" class="animable"></path></g><g id="elywyqdw7fcfi"><g style="opacity: 0.2; transform-origin: 289.668px 360.196px;" class="animable"><path d="M297.47989,354.8975c-.2447,3.1119-1.4587,6.2368-3.9753,8.0835-1.6955,1.2442-3.7424,1.9053-5.7751,2.4444-1.9398,.5144-3.904,.9362-5.8839,1.2635,0,0,6.1136-4.2125,8.6029-5.2984,2.4894-1.0859,2.6567-5.0093,4.2064-6.3964,1.5496-1.3871,2.9736-1.9868,2.825-.0966Z" id="elw90fs4478rb" class="animable" style="transform-origin: 289.668px 360.196px;"></path></g></g><g id="el6haqux5tnas"><g style="opacity: 0.2; transform-origin: 280.793px 385.65px;" class="animable"><path d="M274.99989,372.8022c-3.7031,4.1569-4.4794,8.7805-2.9602,14.1364,1.51931,5.3558,6.27,11.9636,13.8148,15.4542-3.35949-4.6368-6.5668-14.3854-5.37549-19.986,1.19129-5.6005,4.84319-10.6315,9.799-13.4995-8.68681,2.8259-10.97291,2.3606-15.27811,3.8949Z" style="fill: rgb(255, 255, 255); transform-origin: 280.793px 385.65px;" id="elvr64myejjyn" class="animable"></path></g></g><g id="elvlmfxlsszj9"><g style="opacity: 0.2; transform-origin: 312.978px 378.207px;" class="animable"><path d="M310.72479,343.5813c-2.4561,.1362-4.65579,.5053-6.6186,1.0482,.3757-.0011,.7516-.0238,1.1054-.0497,8.4217-.6155,16.875,3.6021,22.0338,10.2872,5.1589,6.685,7.1169,15.5706,5.9849,23.9385-1.76929,13.0799-8.96329,26.2303-25.918,32.4736-7.1544,2.6345-17.99029-1.2818-20.1474-2.3824,11.4133,6.334,24.3043,5.2705,37.8575-4.6234,17.4924-12.7697,13.5998-28.6076,12.9485-32.4941-1.73089-10.33-12.7236-29.0033-27.2461-28.1979Z" id="elhpe3e28va7" class="animable" style="transform-origin: 312.978px 378.207px;"></path></g></g><g id="elmq37gz4xai"><g style="opacity: 0.2; transform-origin: 306.662px 353.358px;" class="animable"><path d="M310.47109,348.2521c-3.4223-1.5744-7.8896-.364-10.049,2.7228l.1585,.7145c.213,1.9392,.4261,3.8783,.6392,5.8175,.049,.4464,.1121,.925,.4144,1.2571,.5504,.6044,1.5357,.399,2.2979,.1034,2.7953-1.0843,5.36091-2.7564,7.4814-4.8759,.7351-.7349,1.4556-1.6144,1.4868-2.6534,.0416-1.3878-1.1678-2.5057-2.4292-3.086Z" style="fill: rgb(255, 255, 255); transform-origin: 306.662px 353.358px;" id="el5o4df724xel" class="animable"></path></g></g></g><g id="elx8vlbph2lj" class="animable" style="transform-origin: 298.801px 329.206px;"><g id="el6ixdze9ofyi"><path d="M302.39459,372.4714c-8.16059-5.3966-15.9653-10.7043-23.2582-15.8837-1.2621-.8964-2.5089-1.7889-3.73939-2.6772-6.78271-4.8969-13.07521-9.671-18.742-14.2884-3.4-2.4418-4.17681-7.1776-1.735-10.5776,7.61629-8.8957,17.81249-22.4768,29.71019-41.3687,2.44181-3.4,7.1777-4.1769,10.57781-1.735,11.23539,4.3673,28.29969,18.3004,45.73949,32.8494,3.4001,2.4418,4.1768,7.1776,1.7349,10.5776-14.5267,19.3693-23.4747,32.0058-29.71,41.3687-2.4419,3.4001-7.1777,4.1768-10.5778,1.7349Z" style="fill: rgb(255, 255, 255); opacity: 0.2; transform-origin: 298.801px 329.206px;" class="animable"></path></g><g id="elnzw7gll51w9"><g style="opacity: 0.1; transform-origin: 282.197px 327.155px;" class="animable"><path d="M301.36239,358.9706c-.589-1.125-1.7169-1.8483-2.8035-2.5056-7.4904-4.5296-15.97989-9.0305-19.1795-17.1785-1.5229-3.8779-7.8103-6.7143-7.3668-10.8569,1.1182-10.4437,11.8768-21.951,19.0252-29.6466,.86-.9258,1.7781-1.8524,2.2375-3.0295,.4596-1.177,.325-2.6948-.6737-3.469-.99859-.7741-4.77759-.695-4.8274,.5676-8.127,10.3732-15.4944,21.3413-22.024,32.7876-1.9286,3.3808-3.8435,7.2908-2.6966,11.0102,.8895,2.8846,3.4198,4.9093,5.8458,6.7056,9.06061,6.7086,18.5495,12.8384,28.3899,18.3399,1.0296,.5756,2.2825,1.1531,3.3331,.6168,1.1309-.5773,1.3292-2.2167,.74-3.3416Z" style="fill: rgb(255, 255, 255); transform-origin: 282.197px 327.155px;" id="el7g3gmddsz75" class="animable"></path></g></g><g id="eln0va128ksb"><g style="opacity: 0.1; transform-origin: 327.903px 327.852px;" class="animable"><path d="M320.337,315.5761c1.71559,1.7831,4.06,2.7983,6.06849,4.2435,2.00851,1.4452,3.8061,3.6779,3.51251,6.1348-.24771,2.0724-1.88261,3.6553-3.28921,5.1973-2.3197,2.5432-4.2459,5.4433-5.7009,8.5626-.8138,1.7449,1.2574,3.4593,2.836,2.3572,2.8272-1.9738,5.2058-4.7351,7.4513-7.4069,1.4395-1.7128,2.8992-3.458,3.7832-5.5133s1.1245-4.5033,.1071-6.496c-.981-1.9214-2.9327-3.1179-4.7897-4.2163-2.5925-1.5334-5.1849-3.0668-7.7774-4.6003-.59139-.3498-1.2849-.7118-1.933-.4835-.6481,.2285-.8092,1.387-.1337,1.5129" style="fill: rgb(255, 255, 255); transform-origin: 327.903px 327.852px;" id="elndbem5eirkb" class="animable"></path></g></g></g></g><g id="el80nrsg9au6r" class="animable" style="transform-origin: 287.411px 215.028px;"><g id="ela2aicavg61"><rect x="281.21362" y="88.20679" width="12.39555" height="253.63102" style="fill: rgb(64, 123, 255); transform-origin: 287.411px 215.022px; transform: rotate(12.3997deg);" class="animable"></rect></g><g id="elf0ne3kcgqc8"><polygon points="294.96129 151.6738 301.98339 177.6654 298.60479 192.9464 291.04089 169.5272 294.96129 151.6738" style="fill: rgb(255, 255, 255); opacity: 0.7; transform-origin: 296.512px 172.31px;" class="animable"></polygon></g><g id="elb29ctqc6htd"><polygon points="284.09079 200.9934 291.12049 227.0153 287.74449 242.3707 280.19549 218.8469 284.09079 200.9934" style="fill: rgb(255, 255, 255); opacity: 0.7; transform-origin: 285.658px 221.682px;" class="animable"></polygon></g><g id="eltjr6ba09b7f"><polygon points="272.62589 253.0548 279.65559 279.0767 276.27959 294.4321 268.73059 270.9083 272.62589 253.0548" style="fill: rgb(255, 255, 255); opacity: 0.7; transform-origin: 274.193px 273.743px;" class="animable"></polygon></g><g id="elhjo1i2s60pp"><polygon points="260.80539 307.2307 267.83519 333.2525 266.234 340.2106 261.42509 339.1533 256.91019 325.0841 260.80539 307.2307" style="fill: rgb(255, 255, 255); opacity: 0.7; transform-origin: 262.373px 323.721px;" class="animable"></polygon></g><g id="elyasmlw0uob"><polygon points="306.33079 100.1006 313.308 126.0923 309.951 141.3732 302.43549 117.954 306.33079 100.1006" style="fill: rgb(255, 255, 255); opacity: 0.7; transform-origin: 307.872px 120.737px;" class="animable"></polygon></g><g id="elee5kdtadopn"><g style="opacity: 0.2; transform-origin: 276.464px 266.142px;" class="animable"><polygon points="266.28269 340.2213 254.12759 337.5489 286.01569 192.5074 298.80129 192.0627 266.28269 340.2213" id="els16tfbhl63" class="animable" style="transform-origin: 276.464px 266.142px;"></polygon></g></g></g><g id="elvp5mb6jd9te" class="animable" style="transform-origin: 260.481px 271.702px;"><ellipse cx="260.48119" cy="271.702" rx="83.1494" ry="3.4779" style="fill: rgb(64, 123, 255); transform-origin: 260.481px 271.702px;" id="elu8tqk10hi7g" class="animable"></ellipse><g id="elr9zr78570bh"><ellipse cx="260.48119" cy="271.702" rx="83.1494" ry="3.4779" style="fill: rgb(255, 255, 255); opacity: 0.2; transform-origin: 260.481px 271.702px;" class="animable"></ellipse></g></g><g id="elc05axnnifq"><path d="M199.67229,194.701c-.7604-.1042-1.46529,.4087-1.5938,1.1653-2.1381,12.5908-18.5318,109.393-21.22649,133.3398-2.7128,24.1077,9.7884,71.6683,31.04219,90.7176,1.1014,.9871,2.7922-.1783,2.27381-1.5634-5.48561-14.6547-21.1443-59.3195-18.6394-85.4113,2.8162-29.3354,20.8038-121.8584,23.3059-134.6561,.1567-.8017-.3934-1.5673-1.2028-1.6783l-13.9594-1.9136Z" style="fill: rgb(255, 255, 255); opacity: 0.3; transform-origin: 195.673px 307.489px;" class="animable"></path></g></g></g><g id="freepik--Cherries--inject-42" class="animable" style="transform-origin: 248.928px 290.669px;"><g id="elbx7e4r1ozq" class="animable" style="transform-origin: 141.471px 366.689px;"><g id="elh5ksmhswcda" class="animable" style="transform-origin: 164.768px 420.562px;"><path d="M161.9443,397.0712c-.1809,.5738-4.7155-5.2668-16.216-2.3729s-18.6601,16.2058-13.5565,32.5423c5.5531,17.7753,18.8036,26.8066,39.611,23.6715,20.8074-3.1351,24.5745-18.5267,25.7608-22.167,3.1529-9.6756,2.0793-30.7013-10.7914-36.5362-14.1612-6.42-23.4278,.4831-24.8079,4.8623Z" style="fill: rgb(64, 123, 255); transform-origin: 164.768px 420.562px;" id="el6fvdqfjqzdl" class="animable"></path><g id="elb2p2lunb8m"><path d="M161.9443,397.0712c-.1809,.5738-4.7155-5.2668-16.216-2.3729s-18.6601,16.2058-13.5565,32.5423c5.5531,17.7753,18.8036,26.8066,39.611,23.6715,20.8074-3.1351,24.5745-18.5267,25.7608-22.167,3.1529-9.6756,2.0793-30.7013-10.7914-36.5362-14.1612-6.42-23.4278,.4831-24.8079,4.8623Z" style="fill: rgb(255, 255, 255); opacity: 0.5; transform-origin: 164.768px 420.562px;" class="animable"></path></g><g id="elxwtumutfo7"><g style="opacity: 0.3; transform-origin: 161.027px 397.924px;" class="animable"><path d="M170.2567,396.0016c-1.6097,2.5704-4.0601,4.7161-7.058,5.1754-2.0197,.3094-4.0799-.0413-6.0731-.4908-1.902-.4289-3.7835-.9487-5.636-1.5568,0,0,7.1595-.88,9.7918-.6962s4.5403-3.1204,6.4986-3.6184c1.9583-.4981,3.4545-.3745,2.4767,1.1868Z" id="elfh92ijgfkb" class="animable" style="transform-origin: 161.027px 397.924px;"></path></g></g><g id="elrqhysz0k7q"><g style="opacity: 0.3; transform-origin: 145.654px 416.501px;" class="animable"><path d="M142.845,401.3175c-5.0584,1.9157-7.8056,5.5491-8.9048,10.8452-1.0992,5.2962,.0222,13.1233,4.9516,19.5216-.8091-5.504,.8108-15.3426,4.3547-19.631,3.5439-4.2883,8.951-6.98,14.5089-7.2223-8.7526-1.4712-10.5125-2.8997-14.9104-3.5135Z" style="fill: rgb(255, 255, 255); transform-origin: 145.654px 416.501px;" id="elqi1ts4lo1p" class="animable"></path></g></g><g id="elbvxl5o8slh"><g style="opacity: 0.3; transform-origin: 168.066px 420.831px;" class="animable"><path d="M186.7522,392.2089c-2.1768-.9869-4.2374-1.6578-6.172-2.0726,.3241,.168,.658,.3174,.9744,.4541,7.5305,3.2559,12.9156,10.6888,14.3537,18.766,1.4382,8.0772-.8699,16.6109-5.6067,23.3095-7.4041,10.4706-20.8222,16.3453-33.5381,14.6834-7.3449-.9599-14.2668-4.4136-19.6669-9.4738,6.9832,10.5865,18.5646,15.4656,34.6862,13.0366,20.8074-3.1351,24.5745-18.5267,25.7608-22.167,3.1529-9.6756,2.0792-30.7013-10.7914-36.5362Z" id="elg3m6k8ki22g" class="animable" style="transform-origin: 168.066px 420.831px;"></path></g></g><g id="elwg0cgo4h4yg"><g style="opacity: 0.3; transform-origin: 178.747px 397.783px;" class="animable"><path d="M184.4338,396.1179c-2.2399-2.8945-6.6319-3.8602-9.8795-2.1723l-.1847,.6866c-.6882,1.7661-1.3765,3.5321-2.0647,5.2982-.1584,.4065-.3193,.8471-.2082,1.269,.2024,.7681,1.1434,1.0342,1.9328,1.1221,2.8951,.3228,5.8566,.0359,8.6359-.8365,.9635-.3024,1.9795-.7361,2.4734-1.617,.6598-1.1766,.1206-2.6832-.705-3.7501Z" style="fill: rgb(255, 255, 255); transform-origin: 178.747px 397.783px;" id="el62weblm0m5a" class="animable"></path></g></g></g><g id="el7upvgbs7w5e" class="animable" style="transform-origin: 92.7233px 415.606px;"><path d="M101.5364,394.8086c-.4705,.3752-.972-7.0021-12.1292-11.0214-11.1571-4.0193-24.5287,3.0282-29.4145,19.4311-5.316,17.8476,.6357,32.7378,19.649,41.7527,19.0134,9.0149,30.7314-1.6519,33.7478-4.0099,8.0174-6.2674,18.8645-24.311,11.4435-36.3372-8.165-13.2321-19.7069-12.678-23.2966-9.8153Z" style="fill: rgb(64, 123, 255); transform-origin: 92.7233px 415.606px;" id="el2w5xo0w3p5c" class="animable"></path><g id="elfe0evigmqp7"><path d="M101.5364,394.8086c-.4705,.3752-.972-7.0021-12.1292-11.0214-11.1571-4.0193-24.5287,3.0282-29.4145,19.4311-5.316,17.8476,.6357,32.7378,19.649,41.7527,19.0134,9.0149,30.7314-1.6519,33.7478-4.0099,8.0174-6.2674,18.8645-24.311,11.4435-36.3372-8.165-13.2321-19.7069-12.678-23.2966-9.8153Z" style="fill: rgb(255, 255, 255); opacity: 0.5; transform-origin: 92.7233px 415.606px;" class="animable"></path></g><g id="el9hza4lcs01r"><g style="opacity: 0.3; transform-origin: 100.777px 395.194px;" class="animable"><path d="M109.03,398.5617c-2.7705,1.234-6.0014,1.6462-8.745,.3537-1.8485-.8708-3.3619-2.3119-4.7647-3.7976-1.3386-1.4177-2.6094-2.8993-3.8069-4.438,0,0,6.4313,3.2669,8.5126,4.8888,2.0814,1.622,5.5089-.0542,7.4117,.6259,1.9028,.68,3.0751,1.6177,1.3923,2.3672Z" id="els38r57wkpm9" class="animable" style="transform-origin: 100.777px 395.194px;"></path></g></g><g id="elcdji16uekcc"><g style="opacity: 0.3; transform-origin: 78.3822px 398.95px;" class="animable"><path d="M83.3198,387.6692c-5.2662-1.2345-9.5739,.2464-13.4425,4.0268-3.8685,3.7804-7.3078,10.9003-6.79,18.9606,2.4014-5.0182,9.2379-12.2765,14.5722-13.856s11.323-.7941,16.0695,2.1076c-6.4405-6.1068-7.1031-8.2745-10.4092-11.239Z" style="fill: rgb(255, 255, 255); transform-origin: 78.3822px 398.95px;" id="elh8rid8odzsr" class="animable"></path></g></g><g id="el3tcjt7ot09t"><g style="opacity: 0.3; transform-origin: 92.7262px 423.995px;" class="animable"><path d="M124.833,404.6239c-1.2551-2.034-2.5901-3.741-3.9636-5.1652,.1751,.3203,.3688,.6307,.5549,.9208,4.4302,6.9052,4.7484,16.0784,1.4324,23.5826-3.3159,7.5043-9.9949,13.2958-17.6644,16.2091-11.9883,4.5537-26.5519,4.5084-39.7435-7.0732-5.5665-4.8871-7.2467-15.9549-7.3071-18.307-.1164,12.6817,6.7684,23.1953,21.5,30.18,19.0134,9.0149,30.7314-1.6519,33.7478-4.0099,8.0174-6.2674,18.8645-24.311,11.4435-36.3372Z" id="elo1dlpf9q8i" class="animable" style="transform-origin: 92.7262px 423.995px;"></path></g></g><g id="elgjkxqcnslxs"><g style="opacity: 0.3; transform-origin: 114.167px 404.8px;" class="animable"><path d="M120.7273,406.5728c-.2425-3.652-3.3472-6.9051-6.984-7.3176l-.5365,.4665c-1.557,1.081-3.1139,2.162-4.6708,3.2431-.3584,.2488-.7378,.5246-.8811,.9366-.2609,.7503,.3712,1.4963,.9771,2.01,2.2217,1.884,4.839,3.2993,7.6318,4.1271,.9683,.287,2.0534,.4943,2.9549,.0392,1.2042-.6079,1.598-2.1588,1.5086-3.5049Z" style="fill: rgb(255, 255, 255); transform-origin: 114.167px 404.8px;" id="elx1yb88yugy" class="animable"></path></g></g></g><path d="M160.1562,401.2166s-4.943-5.297-9.1258-14.2211c-4.1829-8.9241-10.1397-26.2682-11.8756-39.1584-1.6382-12.1646-.646-29.3679,.1208-36.2806s2.1953-14.9969,2.1953-14.9969c0,0-20.3984,20.9149-27.7749,44.4317-6.4286,20.4946-9.8905,36.4087-10.1435,45.9889l.0076,12.7179c-1.7142-.1228-3.3305-.6569-4.8284-1.6891,0,0,.8666-17.601,4.8219-34.4089,3.9553-16.8078,8.9886-33.0594,15.5927-44.0563,0,0,12.9335-18.7322,16.7477-23.5907,3.8143-4.8584,9.4928-14.0484,9.843-14.1002,.3502-.0518,7.7595,3.2659,7.0936,3.6029-.6658,.3371-6.3526,7.8582-8.1445,16.7118-1.7919,8.8536-3.5018,27.8582-3.0004,37.7802,.4593,9.0868,2.3926,19.9954,9.7489,37.6836s16.1761,21.4569,16.1761,21.4569c0,0-2.9707,3.0082-7.4545,2.1283Z" style="fill: rgb(38, 50, 56); transform-origin: 133.171px 341.615px;" id="eld7lf55slohr" class="animable"></path><path d="M143.4891,299.7204c-.1644,.5015,3.9825,15.6338,8.3518,21.7868l1.5438-1.6598s-3.7017-5.5361-5.7432-15.3734c-2.0415-9.8373-1.0836-11.2911-1.623-10.9727-.5393,.3183-2.5294,6.2191-2.5294,6.2191Z" style="fill: rgb(38, 50, 56); transform-origin: 148.435px 307.485px;" id="el16b16tmdln4" class="animable"></path><path d="M152.3447,317.7359s-8.819,35.5393,12.8279,52.8546c21.6468,17.3153,47.2784,25.7587,59.6354,24.575,0,0-.83311-.8491-4.96581-4.9705-3.5995-3.5897-22.4964-37.1032-31.0494-48.6253-9.2149-12.4139-24.6886-24.9768-36.4481-23.8338Z" style="fill: rgb(38, 50, 56); transform-origin: 187.687px 356.469px;" id="el861tpjlciok" class="animable"></path><g id="elw4j9i9u4yer"><path d="M152.78679,319.93579c7.69075,15.86217,17.60686,30.67743,29.39016,43.78737,8.77974,9.89722,18.80696,18.66635,30.37824,25.15769l11.2366,7.03025-11.4973-6.59485c-26.13723-13.88113-47.78437-42.56929-59.50771-69.38046h0Z" style="fill: rgb(255, 255, 255); opacity: 0.3; transform-origin: 188.289px 357.923px;" class="animable"></path></g><g id="elyrpxwodu0qd"><path d="M147.0845,294.7786c2.3326-5.3003,5.2783-9.0859,5.7461-9.3228,.6659-.337-6.7434-3.6547-7.0936-3.6029-.2501,.037-3.2176,4.7341-6.2828,9.1861l7.6303,3.7396Z" style="opacity: 0.3; transform-origin: 146.164px 288.315px;" class="animable"></path></g><g id="elucf46avi14j"><path d="M146.3655,296.5128c-.2361,.2702-1.6791,5.5005-1.9467,7.0545l.5592,1.8738,1.8941-5.0813-.5066-3.847Z" style="opacity: 0.3; transform-origin: 145.645px 300.977px;" class="animable"></path></g><g id="el972kev10wd"><path d="M163.4532,339.69409c-2.07758,8.21637-.93666,16.85182-.5046,25.21447,.05235,1.21314,.14391,2.42313,.16999,3.64032-.25134-1.19131-.43954-2.38962-.65704-3.58588-1.16836-8.28825-2.3417-17.33456,.99165-25.26892h0Z" style="fill: rgb(255, 255, 255); opacity: 0.3; transform-origin: 162.361px 354.121px;" class="animable"></path></g><g id="el0nu2r6mdg9p"><path d="M173.5715,354.34399c9.20592,.33247,18.38528,2.22526,27.03093,5.38605-7.65606-1.56774-19.43498-3.97502-27.03093-5.38605h0Z" style="fill: rgb(255, 255, 255); opacity: 0.3; transform-origin: 187.087px 357.037px;" class="animable"></path></g><g id="els08i9pw3rj"><path d="M186.60609,369.63791c.48652,5.54825,2.05778,10.65994,3.36939,16.04878-2.6031-4.83497-4.28161-10.53729-3.36939-16.04878h0Z" style="fill: rgb(255, 255, 255); opacity: 0.3; transform-origin: 188.165px 377.662px;" class="animable"></path></g><g id="el7yialcucldf"><path d="M157.91949,329.10239c7.79236-.50481,15.5722,1.29058,23.02344,3.42428-7.62897-.76443-15.40996-2.56958-23.02344-3.42428h0Z" style="fill: rgb(255, 255, 255); opacity: 0.3; transform-origin: 169.431px 330.772px;" class="animable"></path></g></g><g id="el3doynw82y2s" class="animable" style="transform-origin: 384.641px 201.046px;"><g id="elyi7r5cnq0dn" class="animable" style="transform-origin: 384.641px 204.564px;"><g id="el8edd5hmkke6" class="animable" style="transform-origin: 401.514px 236.563px;"><path d="M394.22579,212.0224c.471,.4718,1.9451-7.587,14.73-10.6173,12.7849-3.0304,26.6245,6.3991,29.9531,25.0672,3.6218,20.3123-4.7911,35.9606-26.849,43.5087-22.05789,7.548-33.6248-5.6592-36.6508-8.6321-8.0429-7.9015-17.72909-29.1208-8.0566-41.4327,10.6423-13.5464,23.2792-11.4939,26.8733-7.8938Z" style="fill: rgb(64, 123, 255); transform-origin: 401.514px 236.563px;" id="elzi10kickf9d" class="animable"></path><g id="elrky50uv2ffk"><path d="M394.22579,212.0224c.471,.4718,1.9451-7.587,14.73-10.6173,12.7849-3.0304,26.6245,6.3991,29.9531,25.0672,3.6218,20.3123-4.7911,35.9606-26.849,43.5087-22.05789,7.548-33.6248-5.6592-36.6508-8.6321-8.0429-7.9015-17.72909-29.1208-8.0566-41.4327,10.6423-13.5464,23.2792-11.4939,26.8733-7.8938Z" style="fill: rgb(255, 255, 255); opacity: 0.5; transform-origin: 401.514px 236.563px;" class="animable"></path></g><g id="elz3gmzmxz2x9"><g style="opacity: 0.3; transform-origin: 395.134px 212.941px;" class="animable"><path d="M385.50719,215.2176c2.8957,1.7046,6.4011,2.5622,9.583,1.4822,2.1437-.7276,3.9899-2.125,5.7199-3.5852,1.6507-1.3934,3.23491-2.8656,4.7455-4.4099,0,0-7.4883,2.7926-9.9823,4.3181s-6.0578-.7481-8.2375-.2373-3.5875,1.3966-1.8286,2.4321Z" id="el8ab7gesqwvi" class="animable" style="transform-origin: 395.134px 212.941px;"></path></g></g><g id="eln68k3yl4l0g"><g style="opacity: 0.3; transform-origin: 418.66px 220.292px;" class="animable"><path d="M415.17209,206.4395c5.9517-.7009,10.5088,1.4677,14.2952,6.1129,3.7863,4.6452,6.6826,12.9131,5.1053,21.7218-2.0165-5.8245-8.6355-14.6694-14.3104-17.0749s-12.3659-2.2893-17.9539,.3119c7.8534-5.9179,8.85371-8.2214,12.8638-11.0717Z" style="fill: rgb(255, 255, 255); transform-origin: 418.66px 220.292px;" id="eljymafw8h8wb" class="animable"></path></g></g><g id="elajidf32ddi"><g style="opacity: 0.3; transform-origin: 401.404px 243.502px;" class="animable"><path d="M367.35249,219.9162c1.6359-2.0823,3.3189-3.7947,5.009-5.1908-.2328,.3307-.4848,.6482-.7259,.9443-5.7401,7.0481-7.2369,17.1067-4.5243,25.7824,2.7126,8.6756,9.3415,15.886,17.4206,20.0517,12.6284,6.5112,31.9986,5.5614,43.6508-2.5688,6.7306-4.6961,10.5074-13.2893,11.3177-19.4913-1.4568,13.9755-10.3501,24.6891-27.4405,30.5373-22.05789,7.548-33.6248-5.6593-36.6508-8.6321-8.0429-7.9015-17.72909-29.1208-8.0566-41.4327Z" id="ele0ueoa41yx" class="animable" style="transform-origin: 401.404px 243.502px;"></path></g></g><g id="elk6kvdtt3go"><g style="opacity: 0.3; transform-origin: 378.957px 221.243px;" class="animable"><path d="M371.62879,222.5748c.7234-3.9901,4.5478-7.1832,8.603-7.1829l.5323,.5806c1.57891,1.3847,3.1578,2.7693,4.7367,4.154,.3634,.3187,.7467,.6697,.8529,1.1412,.1935,.8585-.59569,1.6008-1.3268,2.0906-2.6813,1.7964-5.7395,3.0273-8.9175,3.5896-1.1018,.1949-2.3222,.2876-3.2578-.3261-1.2498-.8197-1.4894-2.5763-1.2228-4.047Z" style="fill: rgb(255, 255, 255); transform-origin: 378.957px 221.243px;" id="elhqd7g6bs0nv" class="animable"></path></g></g></g><path d="M343.091,142.5315c-5.77411-3.3988-11.42941-5.8639-11.66081-5.6733-.2314,.1905-2.3558,6.7289-1.7659,6.5021s8.5442,.4729,15.1232,4.376,19.4877,13.6231,25.4352,19.5735c5.4469,5.4495,11.2009,12.8598,18.13331,27.527,6.93239,14.6672,4.29029,22.3477,4.29029,22.3477,0,0,3.6108,.2529,5.5556-2.0671,0,0-.5046-7.5199-3.7344-15.216-3.2298-7.696-10.7409-21.2887-17.8517-29.7004-6.7106-7.9382-18.0802-17.0861-22.85779-20.5307-4.77771-3.4445-10.667-7.1388-10.667-7.1388" style="fill: rgb(38, 50, 56); transform-origin: 363.882px 177.02px;" id="el49kt2rc5j02" class="animable"></path></g><path d="M348.24179,147.3093s19.9067-22.8093,41.8935-16.3413,39.8489,19.8383,44.8996,28.773c0,0-.97-.1625-5.7204-1.011-4.1374-.739-35.7987,2.3288-47.6579,1.9901-12.777-.3649-28.6195-4.9005-33.4148-13.4108Z" style="fill: rgb(38, 50, 56); transform-origin: 391.638px 145.28px;" id="elfp32m3aytq4" class="animable"></path><g id="el1d5w5ox4gu9"><path d="M352.00238,146.2233c23.5352-4.94992,58.61621-3.92849,78.99692,9.90022,1.41925,1.12543,2.76388,2.33621,4.03558,3.61748-1.35751-1.1884-2.75854-2.32611-4.21536-3.37881-21.16587-12.89851-54.76935-13.81606-78.81714-10.13889h0Z" style="fill: rgb(255, 255, 255); opacity: 0.3; transform-origin: 393.519px 151.627px;" class="animable"></path></g><g id="elp5okmm5mylq"><path d="M385.16409,144.01109c4.86644,4.65853,11.71959,11.09183,16.4531,15.76668-6.3196-4.26526-11.9555-9.60478-16.4531-15.76668h0Z" style="fill: rgb(255, 255, 255); opacity: 0.3; transform-origin: 393.391px 151.894px;" class="animable"></path></g><g id="eluhk20amzs49"><path d="M401.702,145.6003c2.80417-3.11534,7.14363-4.50856,11.23605-4.70129-3.84352,1.58151-7.5758,2.70189-11.23605,4.70129h0Z" style="fill: rgb(255, 255, 255); opacity: 0.3; transform-origin: 407.32px 143.25px;" class="animable"></path></g><g id="el99wtbll7ly"><path d="M364.46478,144.5764c2.88806-2.87572,5.87371-5.63045,9.02534-8.21392,3.20771-2.4436,6.3627-5.33786,10.31228-6.49584-3.15053,1.52759-6.87344,5.12779-9.67966,7.26929-3.15274,2.54555-6.26544,5.1612-9.65796,7.44046h0Z" style="fill: rgb(255, 255, 255); opacity: 0.3; transform-origin: 374.134px 137.222px;" class="animable"></path></g></g></g><defs>     <filter id="active" height="200%">         <feMorphology in="SourceAlpha" result="DILATED" operator="dilate" radius="2"></feMorphology>                <feFlood flood-color="#32DFEC" flood-opacity="1" result="PINK"></feFlood>        <feComposite in="PINK" in2="DILATED" operator="in" result="OUTLINE"></feComposite>        <feMerge>            <feMergeNode in="OUTLINE"></feMergeNode>            <feMergeNode in="SourceGraphic"></feMergeNode>        </feMerge>    </filter>    <filter id="hover" height="200%">        <feMorphology in="SourceAlpha" result="DILATED" operator="dilate" radius="2"></feMorphology>                <feFlood flood-color="#ff0000" flood-opacity="0.5" result="PINK"></feFlood>        <feComposite in="PINK" in2="DILATED" operator="in" result="OUTLINE"></feComposite>        <feMerge>            <feMergeNode in="OUTLINE"></feMergeNode>            <feMergeNode in="SourceGraphic"></feMergeNode>        </feMerge>            <feColorMatrix type="matrix" values="0   0   0   0   0                0   1   0   0   0                0   0   0   0   0                0   0   0   1   0 "></feColorMatrix>    </filter></defs></svg>